<?xml version="1.0" encoding="utf-8"?>
<!-- Generator: Adobe Illustrator 21.1.0, SVG Export Plug-In . SVG Version: 6.00 Build 0)  -->
<svg version="1.1" id="Layer_1" xmlns="http://www.w3.org/2000/svg" xmlns:xlink="http://www.w3.org/1999/xlink" x="0px" y="0px"
	 viewBox="0 0 135 50" style="enable-background:new 0 0 135 50;" xml:space="preserve">
<style type="text/css">
	.st0{fill:#FFFFFF;}
	.st1{fill:#8CC13E;}
	.st2{opacity:0.1;}
	.st3{fill:#040404;}
</style>
<g>
	<g id="no">
		<g>
			<path class="st0" d="M66.2,16c-2.6,0-4.7,0.9-6.8,2.8l-0.3-2.5h-4.5v18.4h5v-9.4c0-2.8,2.1-5.2,5.3-5.2c3.3,0,5,2.1,5,4.9v9.6
				h5.1V25C74.9,19.2,71.1,16,66.2,16z M86.5,15.9c-6.5,0-10.6,4.3-10.6,9.6c0,5.3,4,9.6,10.7,9.6c6.7,0,10.7-4.3,10.7-9.6
				C97.2,20.2,93,15.9,86.5,15.9z M86.5,30.9c-3.7,0-5.6-2.6-5.6-5.4c0-2.8,1.9-5.4,5.6-5.4c3.4,0,5.6,2.7,5.6,5.4
				C92.1,28.3,90.2,30.9,86.5,30.9z"/>
		</g>
	</g>
	<g id="ip">
		<g>
			<path class="st0" d="M103.8,34.7h5.1V16.2h-5.1V34.7z M121.9,15.9c-2.3,0-5.1,0.9-6.7,2.9l-0.3-2.5h-4.8v26.1h5.1v-9.9
				c1.5,2,4.7,2.6,6.8,2.6c6.6,0,10.4-4.3,10.4-9.6C132.5,20.1,128.3,15.9,121.9,15.9z M121.6,30.7c-3.5,0-5.8-2.4-5.8-5.2
				c0-2.9,2.2-5.2,5.8-5.2c3.7,0,5.8,2.4,5.8,5.2C127.4,28.4,125,30.7,121.6,30.7z"/>
		</g>
	</g>
	<g id="Ellipse_9">
		<g>
			<ellipse class="st1" cx="106.5" cy="11" rx="3.1" ry="2.8"/>
		</g>
	</g>
	<g id="Shape_3">
		<g>
			<path class="st0" d="M98.2,22.4c0,0,1.8,2.6,0,6.2h4.1v-6.2H98.2z"/>
		</g>
	</g>
	<g id="Ellipse_8">
		<g>
			<ellipse class="st1" cx="25.9" cy="25" rx="22.1" ry="22.1"/>
		</g>
	</g>
	<g id="ip_1_">
		<g>
			<path class="st0" d="M11.3,35.4h5.9V14.1h-5.9V35.4z M12.5,6.2c-0.9,0.5-1.7,0.8-1.7,2.1c0,4.1,6.9,4.1,6.9,0
				C17.7,5.4,14.6,5,12.5,6.2z M32.2,13.7c-2.7,0-5.9,1-7.7,3.4l-0.4-2.9h-5.5v32.9h5.9V33c1.7,2.3,5.4,3,7.9,3
				c7.6,0,12-4.9,12-11.1C44.3,18.6,39.5,13.7,32.2,13.7z M31.7,30.9c-4,0-6.7-2.7-6.7-6c0-3.3,2.5-6,6.7-6c4.2,0,6.7,2.7,6.7,6
				C38.4,28.2,35.7,30.9,31.7,30.9z"/>
		</g>
	</g>
	<g id="Rectangle_1_3_" class="st2">
		<g>
			<polygon class="st3" points="38.7,6.3 7,38 13.9,44.9 45.6,13.2 			"/>
		</g>
	</g>
	<g id="Rectangle_1">
		<g>
			<polygon class="st0" points="37.7,5.2 5.9,36.9 12.8,43.8 44.6,12.1 			"/>
		</g>
	</g>
	<g id="Shape_1">
		<g>
			<path class="st0" d="M25.9,1.7C13,1.7,2.5,12.1,2.5,25c0,12.9,10.5,23.3,23.4,23.3S49.3,37.9,49.3,25
				C49.3,12.1,38.8,1.7,25.9,1.7z M25.9,46.5C14,46.5,4.4,36.8,4.4,25C4.4,13.2,14,3.5,25.9,3.5c11.9,0,21.5,9.6,21.5,21.5
				C47.4,36.8,37.8,46.5,25.9,46.5z"/>
		</g>
	</g>
</g>
</svg>
